<?xml version="1.0" encoding="UTF-8"?>
<!DOCTYPE svg PUBLIC "-//W3C//DTD SVG 1.1//EN" "http://www.w3.org/Graphics/SVG/1.1/DTD/svg11.dtd">
<svg version="1.1" xmlns="http://www.w3.org/2000/svg" xmlns:xlink="http://www.w3.org/1999/xlink" x="0px" y="0px" width="200" height="200" viewBox="0, 0, 200, 200">
  <g id="Layer 1">
    <path d="M192.66,82.196 L121.874,82.196 L100,14.875 L78.126,82.196 L7.34,82.196 L64.607,123.804 L42.733,191.125 L100,149.518 L157.267,191.125 L135.393,123.804 L192.66,82.196 z M100,135.202 L100,52.357 L113.459,93.779 L157.013,93.779 L121.777,119.379 L135.236,160.801 L100,135.202 z" fill="#747474"/>
    <path d="M173.327,96.245 L179.364,87.099 L175.61,82.86 L183.982,81.731 L192.66,81.196 L192.66,82.196 z" fill="#747474"/>
    <path d="M26.673,96.245 L20.636,87.099 L24.736,81.637 L15.985,81.572 L7.34,81.196 L7.34,82.196 z" fill="#747474"/>
    <path d="M42.733,191.125 L42.733,190.125 L48.504,172.708 L55.351,173.35 L50.696,185.206 L47.183,187.666 z" fill="#747474"/>
    <path d="M157.22,191.125 L157.267,190.125 L151.449,172.708 L144.601,173.35 L149.257,185.206 L152.77,187.666 z" fill="#747474"/>
    <path d="M121.777,119.379 L121.753,118.344 L123.459,117.153 L126.033,116.769 L126.187,118.306 L122.498,121.61 z" fill="#747474"/>
  </g>
  <g id="Layer 1 Copy">
    <path d="M192.66,81.196 L121.874,81.196 L100,13.875 L78.126,81.196 L7.34,81.196 L64.607,122.804 L42.733,190.125 L100,148.518 L157.267,190.125 L135.393,122.804 L192.66,81.196 z M100,134.202 L100,51.357 L113.459,92.779 L157.013,92.779 L121.777,118.379 L135.236,159.801 L100,134.202 z" fill="#000000"/>
  </g>
  <defs/>
</svg>
